<svg width="100%" height="100%" viewBox="0 0 83 57" fill="none" xmlns="http://www.w3.org/2000/svg">
<rect x="0.592863" y="0.592863" width="81.815" height="55.7291" rx="6.52149" fill="white" stroke="#D9D9D9" stroke-width="1.18573"/>
<path fill-rule="evenodd" clip-rule="evenodd" d="M42.0932 40.6868C39.2675 43.1254 35.602 44.5974 31.5967 44.5974C22.6595 44.5974 15.4144 37.2683 15.4144 28.2273C15.4144 19.1864 22.6595 11.8573 31.5967 11.8573C35.602 11.8573 39.2675 13.3293 42.0932 15.7678C44.919 13.3293 48.5845 11.8573 52.5898 11.8573C61.527 11.8573 68.7721 19.1864 68.7721 28.2273C68.7721 37.2683 61.527 44.5974 52.5898 44.5974C48.5845 44.5974 44.919 43.1254 42.0932 40.6868Z" fill="#ED0006"/>
<path fill-rule="evenodd" clip-rule="evenodd" d="M42.0932 40.6868C45.5726 37.6843 47.7789 33.2164 47.7789 28.2273C47.7789 23.2382 45.5726 18.7704 42.0932 15.7678C44.919 13.3293 48.5845 11.8573 52.5898 11.8573C61.527 11.8573 68.7721 19.1864 68.7721 28.2273C68.7721 37.2683 61.527 44.5974 52.5898 44.5974C48.5845 44.5974 44.919 43.1254 42.0932 40.6868Z" fill="#F9A000"/>
<path fill-rule="evenodd" clip-rule="evenodd" d="M42.0933 40.6868C45.5727 37.6842 47.7789 33.2164 47.7789 28.2274C47.7789 23.2383 45.5727 18.7705 42.0933 15.7679C38.6139 18.7705 36.4077 23.2383 36.4077 28.2274C36.4077 33.2164 38.6139 37.6842 42.0933 40.6868Z" fill="#FF5E00"/>
</svg>
